<?xml version="1.0" encoding="UTF-8" standalone="no"?><!DOCTYPE svg PUBLIC "-//W3C//DTD SVG 1.1//EN"
        "http://www.w3.org/Graphics/SVG/1.1/DTD/svg11.dtd">
<svg width="100%" height="100%" viewBox="0 0 3378 2889" version="1.1" xmlns="http://www.w3.org/2000/svg"
     xmlns:xlink="http://www.w3.org/1999/xlink" xml:space="preserve" xmlns:serif="http://www.serif.com/"
     style="fill-rule:evenodd;clip-rule:evenodd;stroke-linejoin:round;stroke-miterlimit:2;"><path d="M2331.52,1922.74c-2.042,4.503 -4.415,8.881 -7.118,13.134c-2.704,4.252 -7.224,7.629 -13.562,10.131c-2.336,1 -13.42,4.628 -33.251,10.882c-19.831,6.253 -42.745,13.508 -68.743,21.763c-25.998,8.255 -51.746,16.51 -77.246,24.765c-25.499,8.255 -44.999,14.634 -58.501,19.137c-6.836,2.502 -15.085,5.128 -24.748,7.88c-9.662,2.752 -18.728,4.128 -27.198,4.128c-6.975,0 -12.478,-1.751 -16.509,-5.254c-4.031,-3.502 -4.417,-10.006 -1.158,-19.512c7.547,-22.013 15.073,-42.151 22.579,-60.412c7.506,-18.261 15.686,-37.398 24.539,-57.411c8.854,-20.012 18.561,-42.151 29.122,-66.416c10.56,-24.265 22.583,-53.158 36.067,-86.678c17.585,-44.028 34.861,-86.429 51.829,-127.204c16.968,-40.775 34.494,-83.177 52.577,-127.204l54.457,-128.329c8.698,-21.014 17.525,-42.402 26.481,-64.165c8.955,-21.764 18.125,-44.153 27.51,-67.167l39.608,-91.557c0.343,-1 -0.98,-1.5 -3.969,-1.5c-3.986,0 -11.012,0.875 -21.079,2.626c-10.067,1.751 -22.006,3.878 -35.817,6.379c-13.812,2.502 -29.036,5.128 -45.674,7.88c-16.637,2.752 -33.606,5.378 -50.905,7.88c-3.986,0 -7.547,-0.876 -10.683,-2.627c-3.137,-1.751 -4.276,-3.877 -3.418,-6.379c0.686,-2.001 1.699,-3.502 3.038,-4.502l193.878,-212.382c29.461,-6.004 61.082,-12.133 94.864,-18.386c33.781,-6.254 69.715,-11.883 107.801,-16.886c38.086,-5.003 78.113,-9.131 120.083,-12.383c41.97,-3.252 85.873,-4.878 131.71,-4.878c51.473,1.001 100.16,6.129 146.063,15.385c45.902,9.256 84.18,24.765 114.834,46.529c30.653,21.763 51.175,51.282 61.564,88.555c10.39,37.273 5.808,84.427 -13.745,141.462c-10.805,31.52 -26.109,60.538 -45.912,87.054c-19.802,26.517 -41.693,50.406 -65.673,71.67c-23.98,21.263 -48.722,40.024 -74.226,56.284c-25.503,16.26 -49.32,30.144 -71.45,41.651c-22.13,11.507 -41.328,20.638 -57.594,27.392c-16.266,6.754 -27.233,11.132 -32.902,13.133c-0.343,1.001 -0.398,2.252 -0.165,3.753c0.233,1.501 0.866,4.377 1.899,8.63c1.033,4.253 2.587,10.256 4.662,18.011c2.075,7.755 4.533,18.386 7.376,31.895c3.855,12.007 7.833,28.017 11.933,48.03c4.1,20.012 9.075,43.652 14.923,70.919c5.848,27.266 12.991,57.66 21.429,91.181c8.437,33.521 19.007,69.543 31.708,108.067c5.897,7.505 14.026,12.132 24.386,13.884c10.361,1.751 20.232,2.751 29.612,3.001c9.381,0.251 17.181,0.751 23.401,1.501c6.219,0.751 8.386,3.878 6.499,9.381c-1.372,4.003 -7.069,8.63 -17.09,13.884c-10.022,5.253 -21.457,10.631 -34.305,16.135c-12.847,5.503 -25.734,10.756 -38.659,15.759c-12.925,5.004 -22.892,9.006 -29.9,12.008c-14.016,6.004 -28.444,11.757 -43.284,17.261c-14.841,5.503 -30.892,11.632 -48.155,18.386c-17.262,6.754 -36.53,14.634 -57.802,23.64c-21.273,9.005 -45.512,19.762 -72.719,32.27c-7.179,3.502 -13.599,5.878 -19.259,7.129c-5.66,1.251 -10.733,1.876 -15.217,1.876c-8.968,0 -15.961,-2.126 -20.98,-6.379c-5.019,-4.252 -8.742,-9.381 -11.168,-15.384c-2.426,-6.004 -3.937,-12.133 -4.533,-18.387c-0.596,-6.254 -1.205,-11.382 -1.826,-15.384l-61.139,-471.292l-179.15,415.757Zm219.763,-508.064c25.41,0 54.046,-6.504 85.908,-19.512c31.862,-13.008 62.519,-29.769 91.971,-50.281c29.453,-20.513 55.863,-43.778 79.23,-69.794c23.368,-26.016 39.597,-52.282 48.687,-78.798c24.87,-72.545 -6.041,-108.818 -92.732,-108.818c-16.442,0 -30.529,1.126 -42.262,3.377c-11.733,2.252 -22.255,3.878 -31.566,4.878l-139.236,318.948Z" style="fill:#f47222;fill-rule:nonzero;"/>
    <path d="M2851.27,828.823c59.972,1.392 120.389,6.955 178.189,22.708c52.684,14.358 104.407,39.401 138.812,81.976c25.451,31.495 40.378,71.107 42.652,110.825c2.738,47.828 -9.405,96.122 -27.006,140.12c-40.328,100.811 -129.371,178.228 -221.616,233.489c-36.045,21.594 -73.288,40.913 -112.574,57.14c2.692,10.109 4.928,20.337 7.113,30.569l0.166,0.787l-0.347,-1.084c0.211,0.664 0.418,1.329 0.626,1.995c13.72,44.73 20.429,91.063 30.881,137.714c12.622,56.343 27.043,112.173 44.738,166.992l0.225,0.696c24.424,4.08 52.067,-0.388 70.041,10.518c21.167,12.844 25.936,45.604 6.882,66.149c-17.379,18.739 -43.922,27.449 -68.278,37.691c-73.254,30.806 -146.005,56.462 -214.437,85.628c-21.903,9.335 -43.628,19.081 -65.271,29.003l-2.201,1.011c-0.422,0.204 -0.845,0.406 -1.267,0.608c-33.553,15.8 -75.265,19.364 -101.624,-12.62c-11.642,-14.127 -16.963,-32.651 -18.815,-50.861c-0.372,-3.564 -0.79,-7.124 -1.331,-10.672l-44.636,-344.077l-128.376,297.925c-8.863,19.442 -22.63,35.92 -44.848,43.584c-76.304,26.322 -154.316,48.741 -232.123,74.566l-2.119,0.706c-0.837,0.305 -1.676,0.603 -2.515,0.9c-26.326,9.231 -54.094,19.055 -81.784,9.883c-18.723,-6.201 -33.563,-23.275 -34.408,-43.753c-0.609,-14.783 5.444,-28.92 10.588,-43.228c23.849,-66.341 54.608,-129.599 81.975,-194.542c41.514,-98.514 80.913,-197.4 122.193,-297.708l3.367,-8.19l3.459,-8.419l54.474,-128.37c18.104,-43.75 36.123,-87.534 54.004,-131.364l15.217,-35.175c-2.794,0.505 -5.59,1 -8.385,1.495c-27.92,4.917 -55.793,9.479 -83.762,13.559c-3.803,0.554 -9.197,0.835 -9.197,0.835c-21.908,-0.46 -44.483,-14.103 -48.274,-36.073c-2.579,-14.943 4.255,-30.939 16.176,-40.483l-2.068,1.581l191.751,-210.051l5.54,-4.917c12.01,-6.81 30.666,-9.376 47.803,-12.738c141.018,-27.667 283.471,-46.309 427.56,-46.387c0.944,0.02 1.887,0.039 2.83,0.059Zm-323.843,633.058c2.277,1.601 4.759,2.943 6.83,4.801c4.173,3.743 7.395,8.424 9.4,13.658c0.996,2.599 1.363,5.396 2.045,8.094l61.088,470.902l1.524,12.121c0.459,4.337 0.84,8.708 2.388,12.794c0,0 7.082,-0.409 12.373,-2.453c5.832,-2.253 11.412,-5.14 17.122,-7.747c57.289,-26.103 115.04,-49.679 175.003,-72.168c25.355,-9.553 50.086,-20.249 75.748,-30.346l1.041,-0.412c0,0 -10.457,-7.439 -16.824,-15.44l-3.442,-5.213c-3.582,-8.323 -6.186,-17.055 -8.942,-25.726c-26.933,-84.753 -45.581,-172.252 -63.376,-257.689c-2.834,-13.461 -5.858,-26.798 -9.928,-39.835l-1.223,-4.419c-4.636,-21.92 -13.278,-43.359 -14.743,-64.549c-0.376,-5.438 0.276,-10.953 1.997,-16.152l3.365,-7.272c1.639,-2.109 3.05,-4.418 4.918,-6.327c5.455,-5.577 7.028,-6.211 15.336,-9.279c107.657,-40.153 210.24,-102.8 278.229,-190.417c33.334,-42.959 55.269,-94.59 61.866,-149.567c5.649,-47.074 -10.937,-97.907 -54.99,-127.397c-40.094,-26.839 -89.116,-37.744 -136.706,-44.552c-129.882,-18.579 -262.787,-4.532 -397.965,16.415c-44.263,6.859 -88.258,15.394 -132.211,24.166l-2.81,0.562l-2.601,0.523l-134.356,147.179c25.808,-4.44 51.566,-10.461 77.255,-13.153c13.046,-1.367 27.487,-0.127 38.069,10.322c5.327,5.261 8.227,11.674 9.417,15.957c1.934,6.955 1.779,13.148 -0.154,19.898c-0.072,0.253 -0.158,0.501 -0.238,0.752l-1.255,3.361l-39.462,91.217c-17.841,43.733 -35.877,87.554 -53.979,131.299l-54.44,128.289c-36.484,88.79 -73.449,178.001 -109.253,266.418c-31.193,76.876 -67.898,151.12 -96.999,229.645c79.127,-24.033 156.282,-50.363 236.273,-75.985c4.539,-1.462 9.085,-2.91 13.595,-4.474c0,0 2.812,-5.263 2.812,-5.263l179.005,-415.419l4.186,-7.223c1.922,-2.013 3.619,-4.267 5.765,-6.039c6.499,-5.366 14.909,-8.247 23.214,-8.077c5.542,0.114 10.835,2.169 16.033,4.22Zm238.049,-423.735c56.612,0.276 119.424,17.136 132.831,77.994c7.701,34.958 -2.97,71.177 -17.885,101.995c-29.608,61.173 -83.032,109.798 -139.965,147.796c-42.758,28.538 -89.489,52.338 -139.268,63.954c-16.126,3.763 -32.649,6.014 -49.172,6.11l-0.665,0.002c-6.812,-0.741 -8.766,-0.383 -15.084,-3.35c-11.843,-5.561 -19.914,-17.989 -20.295,-30.938c-0.204,-6.977 0.902,-8.627 2.936,-15.17l139.235,-318.948c4.949,-8.71 11.984,-16.336 21.304,-19.412c14.801,-4.885 29.708,-5.538 47.299,-7.837c12.833,-1.678 25.77,-2.218 38.729,-2.196Zm-1.821,70.649c-16.298,0.055 -32.372,2.497 -48.52,5.176c0,0 -104.756,239.625 -104.756,239.625c68.208,-24.165 131.361,-67.863 177.875,-123.18c20.567,-24.458 38.383,-52.387 41.538,-85.655c0.125,-1.316 0.212,-2.636 0.253,-3.958c0.305,-9.868 -4.117,-19.327 -13.878,-23.871c-15.924,-7.413 -34.548,-8.155 -52.512,-8.137Zm-542.452,48.272c1.287,-0.984 2.477,-2.086 3.575,-3.277c-1.192,1.093 -2.383,2.185 -3.575,3.277Z"
          style="fill:#272561;"/>
    <path d="M1384.67,201.062l904.02,-201.062l-399.118,909.714l246.477,-54.819l-321.96,849.834l250.82,-44.967l-571.267,1216.71l43.941,-776.391l-260.344,57.903l223.084,-877.194l-277.812,61.788l162.159,-1141.52Z"
          style="fill:#272561;"/>
    <path d="M2010.76,956.534l-357.087,75.102l-291.966,1038.6l486.855,-97.658l103.823,-229.944l-264.038,53.354l322.413,-839.455Z"
          style="fill:#f47222;"/>
    <path d="M493.113,1531.35c-7.798,36.022 -11.763,72.17 -11.893,108.442c-0.13,36.273 5.632,68.918 17.286,97.936c11.654,29.018 30.229,52.532 55.725,70.544c25.496,18.011 59.917,27.016 103.263,27.016c33.815,-2.001 64.575,-8.88 92.281,-20.637c27.706,-11.758 52.682,-27.017 74.929,-45.779c22.247,-18.761 41.976,-40.275 59.187,-64.54c17.211,-24.265 32.201,-49.781 44.971,-76.547c12.77,-26.767 23.558,-54.159 32.364,-82.176c8.806,-28.017 16.025,-55.034 21.657,-81.05c7.69,-35.522 10.404,-69.919 8.14,-103.189c-2.263,-33.271 -10.099,-62.664 -23.508,-88.18c-13.408,-25.516 -32.509,-46.028 -57.301,-61.538c-24.792,-15.51 -55.872,-23.264 -93.239,-23.264c-29.395,0 -57.118,5.503 -83.166,16.51c-26.049,11.007 -50.267,25.641 -72.655,43.902c-22.388,18.261 -42.756,39.274 -61.104,63.039c-18.348,23.765 -34.617,48.28 -48.805,73.546c-14.189,25.265 -26.136,50.531 -35.841,75.797c-9.705,25.265 -17.135,48.655 -22.291,70.168Zm26.478,550.841c-74.734,0 -138.464,-14.008 -191.189,-42.026c-52.725,-28.017 -94.219,-65.916 -124.481,-113.695c-30.261,-47.78 -49.432,-103.064 -57.511,-165.853c-8.08,-62.789 -4.538,-129.205 10.626,-199.248c17.006,-78.549 43.77,-150.969 80.292,-217.26c36.523,-66.291 80.265,-125.077 131.225,-176.359c50.961,-51.282 107.786,-94.559 170.477,-129.83c62.69,-35.272 128.76,-61.414 198.208,-78.424c5.979,0 11.617,-4.753 16.913,-14.259c5.297,-9.506 10.436,-20.012 15.418,-31.519c4.983,-11.508 10.247,-22.014 15.792,-31.52c5.546,-9.506 11.557,-14.259 18.034,-14.259c94.49,10.006 177.721,27.142 249.693,51.407c71.973,24.265 129.989,58.912 174.049,103.939c44.061,45.028 72.968,101.939 86.723,170.731c13.755,68.793 9.91,152.72 -11.536,251.781c-13.756,63.539 -34.422,123.326 -61.999,179.361c-27.576,56.035 -60.432,107.692 -98.569,154.971c-38.136,47.279 -80.795,89.556 -127.975,126.829c-47.18,37.273 -97.502,68.917 -150.964,94.933c-53.462,26.017 -109.21,45.904 -167.242,59.662c-58.033,13.759 -116.694,20.638 -175.984,20.638Z"
          style="fill:#f47222;fill-rule:nonzero;"/>
    <path d="M807.139,818.809c96.504,10.286 192.936,27.382 283.473,62.565c80.349,31.225 154.737,81.521 202.43,153.471c36.97,55.772 56.97,121.986 62.453,188.709c6.797,82.705 -5.563,166.799 -25.897,246.483c-53.736,210.573 -194.841,397.238 -378.78,509.872c-131.809,80.713 -285.548,125.838 -440.459,123.535c-107.157,-1.593 -214.064,-36.419 -290.113,-113.814c-90.664,-92.269 -122.831,-232.596 -110.841,-365.029c19.962,-220.494 140.446,-430.003 308.89,-562.377c89.388,-70.246 193.382,-121.202 303.749,-149.349l2.197,-0.555c12.703,-23.28 20.177,-49.716 36.894,-71.307c10.94,-14.131 28.083,-23.11 46.004,-22.204Zm6.078,71.875c-12.02,21.936 -18.89,46.25 -34.104,66.995c-8.677,11.833 -21.428,20.851 -36.088,22.778l-0.057,0.006c-204.469,50.76 -382.821,190.816 -481.902,380.099c-63.382,121.083 -97.811,260.919 -78.297,391.046c12.297,81.998 49.656,162.236 116.855,214.216c32.257,24.952 69.596,43.33 108.999,53.793c54.718,14.529 112.274,15.484 169.058,10.92c219.444,-17.637 428.249,-136.894 558.985,-315.76c80.758,-110.489 130.309,-241.827 145.75,-377.511c8.68,-76.28 5.147,-155.592 -27.371,-225.89c-25.495,-55.116 -70.128,-100.2 -122.577,-131.522c-42.006,-25.085 -88.476,-41.745 -135.859,-54.873c-59.947,-16.608 -121.467,-27.306 -183.326,-34.416c-0.022,0.039 -0.044,0.079 -0.066,0.119Zm4.748,248.376c41.29,0.202 82.881,9.49 117.174,32.666c33.242,22.466 58.789,55.209 73.741,93.063c26.043,65.933 21.115,140.99 4.743,209.908c-3.878,16.324 -8.222,32.537 -12.957,48.633c-31.283,106.357 -83.246,211.262 -176.26,276.275c-47.77,33.39 -104.007,52.984 -163.073,56.835c0,0 -11.441,0.251 -21.607,-0.305c-44.788,-2.454 -88.687,-15.922 -123.697,-47.169c-52.094,-46.495 -71.443,-121.98 -70.026,-192.387c0.708,-35.211 4.824,-70.332 12.198,-104.908c19.77,-92.691 66.497,-180.627 127.296,-251.952c57.496,-67.451 136.783,-119.972 229.892,-120.656c0.859,-0.004 1.717,-0.004 2.576,-0.003Zm-1.576,70.65c-77.313,0.349 -148.725,56.278 -194.785,118.163c-6.772,9.099 -13.284,18.391 -19.513,27.87c-33.95,51.671 -59.723,108.653 -74.403,168.912l-0.13,0.54c-7.172,33.389 -10.98,67.448 -11.015,101.479c-0.043,42.049 7.191,86.353 36.509,119.523c24.63,27.865 62.768,39.429 102.648,39.756l0.753,0.004c79.13,-4.971 153.25,-50.58 201.61,-120.322c45.018,-64.923 72.361,-142.089 89.268,-217.881c14.328,-64.232 17.406,-135.577 -20.988,-188.05c-18.344,-25.069 -46.523,-42.247 -77.425,-47.488c-10.726,-1.819 -21.577,-2.521 -32.529,-2.506Zm-73.941,-229.185c-1.539,0.164 -3.082,0.26 -4.629,0.289c0,0 6.666,-0.531 4.629,-0.289Zm-5.51,-70.357c-2.197,0.041 -5.382,0.679 -5.382,0.679c2.183,-0.272 5.526,-0.68 5.382,-0.679Z"
          style="fill:#272561;"/>
</svg>