<?xml version="1.0" encoding="UTF-8" standalone="no"?>
<!DOCTYPE svg PUBLIC "-//W3C//DTD SVG 1.1//EN" "http://www.w3.org/Graphics/SVG/1.1/DTD/svg11.dtd">
<svg width="100%" height="100%" viewBox="0 0 400 400" version="1.1" xmlns="http://www.w3.org/2000/svg" xmlns:xlink="http://www.w3.org/1999/xlink" xml:space="preserve" xmlns:serif="http://www.serif.com/" style="fill-rule:evenodd;clip-rule:evenodd;stroke-linecap:round;stroke-linejoin:round;stroke-miterlimit:1.5;">
    <g transform="matrix(0.623877,0,0,0.623877,-44.4825,1.76444)">
        <rect x="232.754" y="14.798" width="320.243" height="216.182" style="fill:rgb(68,127,244);stroke:black;stroke-width:1.6px;"/>
    </g>
    <g transform="matrix(1.36639,0,0,1.36639,-232.748,-26.0187)">
        <text x="261.928px" y="45.73px" style="font-family:'Calibri', sans-serif;font-size:12.531px;fill:white;">Wha<tspan x="285.545px 289.743px " y="45.73px 45.73px ">t </tspan>prime number is</text>
        <text x="261.928px" y="58.26px" style="font-family:'Calibri', sans-serif;font-size:12.531px;fill:white;">a f<tspan x="274.342px 280.345px 285.643px 289.718px 296.326px " y="58.26px 58.26px 58.26px 58.26px 58.26px ">actor</tspan> of ev<tspan x="328.504px 334.739px " y="58.26px 58.26px ">er</tspan>y f<tspan x="351.234px 357.842px 364.426px 368.428px " y="58.26px 58.26px 58.26px 58.26px ">our-</tspan></text>
        <text x="261.928px" y="70.791px" style="font-family:'Calibri', sans-serif;font-size:12.531px;fill:white;">digit palindr<tspan x="322.863px 329.471px " y="70.791px 70.791px ">om</tspan>e?</text>
    </g>
    <g transform="matrix(0.721988,0,0,0.721988,-873.18,-114.252)">
        <path d="M1678.55,385.334C1677.11,385.175 1675.71,384.574 1674.56,383.522L1649.11,360.21C1646.24,357.576 1646.04,353.102 1648.68,350.226L1649.37,349.47C1652.01,346.594 1656.48,346.399 1659.35,349.033L1684.8,372.345C1685.39,372.885 1685.87,373.503 1686.23,374.168C1686.62,374.208 1687.03,374.259 1687.43,374.32C1687.72,373.813 1688.19,373.38 1688.83,373.085L1694.48,370.486C1696.31,369.646 1698.83,370.255 1700.12,371.845L1700.45,372.263C1701.74,373.853 1701.3,375.826 1699.47,376.666L1697.47,377.587C1705.15,381.476 1712.75,382.716 1707.4,391.148C1704.88,395.113 1702.79,398.96 1687.51,391.545C1683.8,389.745 1680.69,387.561 1678.55,385.334Z" style="fill:white;stroke:rgb(1,0,0);stroke-width:1.85px;"/>
        <g transform="matrix(0.873261,0.487253,-0.423575,0.759136,1769.67,180.622)">
            <ellipse cx="38.144" cy="402.863" rx="21.544" ry="12.837" style="fill:white;stroke:rgb(1,0,0);stroke-width:1.97px;"/>
        </g>
        <g transform="matrix(-0.51112,0.859509,-0.747182,-0.444323,1918.98,654.769)">
            <ellipse cx="38.144" cy="402.863" rx="21.544" ry="12.837" style="fill:white;stroke:rgb(1,0,0);stroke-width:1.97px;"/>
        </g>
        <path d="M1588.65,456.991C1586.63,455.394 1585.3,452.936 1585.26,450.231L1584.65,410.013C1584.64,409.374 1584.7,408.756 1584.83,408.164C1581.8,404.136 1580.04,399.359 1580.04,394.238C1580.04,379.875 1593.85,368.213 1610.85,368.213C1627.86,368.213 1641.66,379.875 1641.66,394.238C1641.66,399.924 1639.5,405.186 1635.83,409.469L1637.98,447.589C1638.13,450.324 1636.94,452.751 1634.98,454.26C1635.81,455.536 1636.23,457.081 1636.06,458.667L1631.95,497.635C1631.58,501.186 1628.42,503.604 1624.9,503.032L1623.98,502.881C1620.46,502.309 1617.91,498.962 1618.28,495.411L1622.38,456.443C1622.49,455.443 1622.82,454.533 1623.31,453.754C1621.53,452.237 1620.35,450.036 1620.21,447.589L1618.62,419.428C1616.14,419.973 1613.54,420.264 1610.85,420.264C1607.97,420.264 1605.18,419.929 1602.53,419.302L1603.01,450.963C1603.04,452.796 1602.47,454.467 1601.49,455.799C1601.87,456.451 1602.15,457.173 1602.3,457.945L1609.6,496.442C1610.27,499.949 1607.94,503.176 1604.4,503.642L1603.48,503.765C1599.94,504.231 1596.53,501.762 1595.87,498.254L1588.56,459.758C1588.38,458.797 1588.42,457.858 1588.65,456.991Z" style="fill:white;stroke:rgb(1,0,0);stroke-width:1.85px;"/>
        <path d="M1592.65,306.799C1597.45,304.734 1603.12,304.325 1609.16,304.325C1615.95,304.325 1622.19,305.07 1627.38,308.074L1628.06,307.74C1632.16,305.724 1637.32,307.327 1639.56,311.318L1659.9,347.438C1662.15,351.428 1660.64,356.305 1656.54,358.32L1655.46,358.851C1651.36,360.866 1646.2,359.263 1643.95,355.273L1642.18,352.131C1643.5,392.449 1642.57,396.852 1610.52,395.978C1582.57,395.215 1579.77,400.954 1578.22,351.511L1576.66,354.287C1574.41,358.277 1569.26,359.88 1565.15,357.864L1564.07,357.334C1559.97,355.318 1558.46,350.442 1560.71,346.452L1581.05,310.331C1583.3,306.341 1588.45,304.738 1592.56,306.754L1592.65,306.799Z" style="fill:white;stroke:rgb(1,0,0);stroke-width:1.85px;"/>
        <g transform="matrix(0.67342,0.100792,-0.10002,0.668263,656.985,-14.8621)">
            <ellipse cx="1457.06" cy="219.619" rx="35.962" ry="44.094" style="fill:white;stroke:rgb(1,0,0);stroke-width:2.72px;"/>
        </g>
        <g transform="matrix(0.00366341,1.05174,-1.10333,0.363778,2148.95,-1637.49)">
            <path d="M1782.6,453.153C1783.15,451.498 1782.25,450.154 1780.59,450.154L1722.71,450.154C1721.06,450.154 1719.27,451.498 1718.72,453.153C1718.72,453.153 1706.96,488.837 1706.96,488.837C1706.41,490.492 1707.32,491.836 1708.97,491.836L1766.85,491.836C1768.51,491.836 1770.3,490.492 1770.84,488.837C1770.84,488.837 1782.6,453.153 1782.6,453.153Z" style="fill:white;stroke:black;stroke-width:1.46px;stroke-linecap:butt;stroke-miterlimit:2;"/>
        </g>
        <path d="M1597.98,375.593C1596.88,375.584 1595.77,375.319 1594.74,374.77L1564.25,358.604C1560.81,356.777 1559.49,352.496 1561.32,349.05L1561.8,348.144C1563.63,344.698 1567.91,343.384 1571.35,345.211L1601.84,361.377C1603.24,362.118 1604.29,363.263 1604.91,364.593C1605.32,364.575 1605.73,364.567 1606.15,364.571C1606.36,364.03 1606.75,363.536 1607.31,363.155L1612.26,359.797C1613.86,358.711 1611.85,365.31 1611.85,365.31C1619.42,368.087 1630.6,369.351 1626.6,378.436C1624.71,382.708 1623.21,386.805 1608.18,381.599C1603.84,380.093 1600.22,377.931 1597.98,375.593Z" style="fill:white;stroke:rgb(1,0,0);stroke-width:1.85px;"/>
    </g>
    <g transform="matrix(0.855977,0,0,0.855977,94.6068,43.3065)">
        <g transform="matrix(0.417015,-0.41928,0,1.00563,29.8456,-35.8801)">
            <path d="M-2.496,155.026L-69.45,155.026L-104.581,240.746L-54.648,230.733L-2.496,155.026Z" style="fill:white;stroke:black;stroke-width:3.06px;"/>
        </g>
        <g transform="matrix(1,0,0,1,-43.667,-16.333)">
            <g transform="matrix(0.899916,0,-0.701856,0.762651,58.8374,3.51519)">
                <path d="M163.049,177.843L158.115,170.58L50.949,175.038C50.324,184.552 44.942,208.9 44.942,208.9L49.081,214.359L162.941,214.234L163.049,177.843Z" style="fill:white;stroke:black;stroke-width:2.8px;"/>
            </g>
            <g transform="matrix(0.899916,0,-0.701856,0.762651,57.3873,-0.404729)">
                <rect x="50.949" y="175.038" width="111.993" height="39.197" style="fill:white;stroke:black;stroke-width:2.8px;"/>
            </g>
            <g transform="matrix(0.821399,0,0,0.811285,-529.576,42.8755)">
                <path d="M715.704,61.245C715.704,60.112 714.795,59.192 713.676,59.192L643.208,59.192C642.088,59.192 641.18,60.112 641.18,61.245L641.18,105.23C641.18,106.363 642.088,107.282 643.208,107.282L713.676,107.282C714.795,107.282 715.704,106.363 715.704,105.23L715.704,61.245Z" style="fill:rgb(68,127,244);"/>
            </g>
            <g transform="matrix(0.821399,0,0,0.811285,-528.981,43.0889)">
                <path d="M717.327,61.245C717.327,59.205 715.691,57.549 713.676,57.549L643.208,57.549C641.193,57.549 639.557,59.205 639.557,61.245C639.557,61.245 639.557,105.23 639.557,105.23C639.557,107.27 641.193,108.926 643.208,108.926L713.676,108.926C715.691,108.926 717.327,107.27 717.327,105.23L717.327,61.245ZM714.08,61.245L714.08,105.23C714.08,105.455 713.899,105.639 713.676,105.639C713.676,105.639 643.208,105.639 643.208,105.639C642.984,105.639 642.803,105.455 642.803,105.23L642.803,61.245C642.803,61.019 642.984,60.836 643.208,60.836C643.208,60.836 713.676,60.836 713.676,60.836C713.899,60.836 714.08,61.019 714.08,61.245Z" style="fill:white;stroke:black;stroke-width:1.43px;stroke-linecap:butt;stroke-miterlimit:2;"/>
            </g>
            <g transform="matrix(0.821399,0,-0.427492,0.470843,-504.994,105.568)">
                <path d="M717.896,63.148C717.896,61.293 716.885,59.434 716.087,58.414C715.259,57.354 714.158,56.36 713.053,56.36C713.053,56.36 640.883,56.36 640.883,56.36C639.897,56.36 638.987,57.622 638.987,59.341L638.987,103.326C638.987,105.182 639.999,107.041 640.796,108.061C641.624,109.12 642.726,110.114 643.83,110.114C643.83,110.114 716.001,110.114 716.001,110.114C716.986,110.114 717.896,108.853 717.896,107.133L717.896,63.148ZM713.511,62.024L643.83,62.024C643.516,62.024 643.372,62.6 643.372,63.148L643.372,104.451L713.053,104.451C713.367,104.451 713.511,103.874 713.511,103.326L713.511,62.024Z" style="fill:white;stroke:black;stroke-width:2.69px;stroke-linecap:butt;stroke-miterlimit:2;"/>
            </g>
            <g transform="matrix(0.637512,0,-0.149337,0.16448,-400.906,127.939)">
                <path d="M715.704,61.245C715.704,60.112 715.466,59.192 715.174,59.192L641.71,59.192C641.417,59.192 641.18,60.112 641.18,61.245L641.18,105.23C641.18,106.363 641.417,107.282 641.71,107.282L715.174,107.282C715.466,107.282 715.704,106.363 715.704,105.23L715.704,61.245Z" style="fill:white;stroke:black;stroke-width:4.28px;"/>
            </g>
            <g transform="matrix(0.17239,0,-0.0795223,0.0875864,-101.49,142.348)">
                <path d="M715.704,61.245C715.704,60.112 715.236,59.192 714.661,59.192L642.223,59.192C641.647,59.192 641.18,60.112 641.18,61.245L641.18,105.23C641.18,106.363 641.647,107.282 642.223,107.282L714.661,107.282C715.236,107.282 715.704,106.363 715.704,105.23L715.704,61.245Z" style="fill:white;stroke:black;stroke-width:17.26px;"/>
            </g>
            <g transform="matrix(0.371832,0,0,0.371832,-93.8143,83.6052)">
                <text x="261.928px" y="45.73px" style="font-family:'Calibri', sans-serif;font-size:12.531px;fill:white;">Wha<tspan x="285.545px 289.743px " y="45.73px 45.73px ">t </tspan>prime number is a</text>
                <text x="261.928px" y="58.26px" style="font-family:'Calibri', sans-serif;font-size:12.531px;fill:white;">f<tspan x="265.507px 271.509px 276.808px 280.883px 287.491px " y="58.26px 58.26px 58.26px 58.26px 58.26px ">actor</tspan> of ev<tspan x="319.669px 325.903px " y="58.26px 58.26px ">er</tspan>y f<tspan x="342.399px 349.007px 355.591px 359.592px 363.429px " y="58.26px 58.26px 58.26px 58.26px 58.26px ">our-d</tspan>igit</text>
                <text x="261.928px" y="70.791px" style="font-family:'Calibri', sans-serif;font-size:12.531px;fill:white;">palindr<tspan x="297.599px 304.207px " y="70.791px 70.791px ">om</tspan>e?</text>
            </g>
        </g>
        <g transform="matrix(1.17546,0,0,1,3.22698,-4.25879)">
            <path d="M-2.496,155.026L-69.45,155.026L-56.39,254.526L-14.445,254.526L-2.496,155.026Z" style="fill:white;stroke:black;stroke-width:1.43px;"/>
        </g>
    </g>
    <g transform="matrix(0.855977,0,0,0.855977,35.0048,-8.77155)">
        <g transform="matrix(0.762836,0,0,1.10088,2.17734,-65.9149)">
            <path d="M44.832,431.298C44.832,430.32 43.685,429.526 42.273,429.526L37.157,429.526C35.745,429.526 34.599,430.32 34.599,431.298L34.599,468.777C34.599,469.756 35.745,470.55 37.157,470.55L42.273,470.55C43.685,470.55 44.832,469.756 44.832,468.777L44.832,431.298Z" style="fill:white;stroke:rgb(1,0,0);stroke-width:1.64px;"/>
        </g>
        <g transform="matrix(0.762836,0,0,1.10088,7.11484,-50.8319)">
            <path d="M44.832,431.298C44.832,430.32 43.685,429.526 42.273,429.526L37.157,429.526C35.745,429.526 34.599,430.32 34.599,431.298L34.599,468.777C34.599,469.756 35.745,470.55 37.157,470.55L42.273,470.55C43.685,470.55 44.832,469.756 44.832,468.777L44.832,431.298Z" style="fill:white;stroke:rgb(1,0,0);stroke-width:1.64px;"/>
        </g>
        <g transform="matrix(0.762836,0,0,1.10088,-30.4633,-49.5038)">
            <path d="M44.832,431.298C44.832,430.32 43.685,429.526 42.273,429.526L37.157,429.526C35.745,429.526 34.599,430.32 34.599,431.298L34.599,468.777C34.599,469.756 35.745,470.55 37.157,470.55L42.273,470.55C43.685,470.55 44.832,469.756 44.832,468.777L44.832,431.298Z" style="fill:white;stroke:rgb(1,0,0);stroke-width:1.64px;"/>
        </g>
        <g transform="matrix(0.412738,0.397454,-0.415366,0.431339,195.466,237.844)">
            <path d="M-42.879,241.453C-42.879,237.078 -46.591,233.526 -51.164,233.526L-52.366,233.526C-56.939,233.526 -60.651,237.078 -60.651,241.453L-60.651,274.133C-60.651,278.508 -56.939,282.06 -52.366,282.06L-51.164,282.06C-46.591,282.06 -42.879,278.508 -42.879,274.133L-42.879,241.453Z" style="fill:white;stroke:rgb(1,0,0);stroke-width:2.66px;"/>
        </g>
        <g transform="matrix(0.897563,-0.440886,0.440886,0.897563,-228.678,69.3915)">
            <ellipse cx="105.642" cy="459.276" rx="15.292" ry="7.5" style="fill:white;stroke:rgb(1,0,0);stroke-width:1.56px;"/>
        </g>
        <g transform="matrix(1,0,0,1,-35.6523,29.397)">
            <g transform="matrix(5.02962e-17,-0.821399,0.785374,0.043615,69.1722,825.11)">
                <path d="M715.704,61.245C715.704,60.112 714.824,59.192 713.741,59.192L643.143,59.192C642.059,59.192 641.18,60.112 641.18,61.245L641.18,105.23C641.18,106.363 642.059,107.282 643.143,107.282L713.741,107.282C714.824,107.282 715.704,106.363 715.704,105.23L715.704,61.245Z" style="fill:rgb(68,127,244);"/>
            </g>
            <g transform="matrix(5.02962e-17,-0.821399,0.785374,0.043615,69.8947,824.854)">
                <path d="M717.327,61.245C717.327,59.205 715.691,57.549 713.676,57.549L643.208,57.549C641.193,57.549 639.557,59.205 639.557,61.245C639.557,61.245 639.557,105.23 639.557,105.23C639.557,107.27 641.193,108.926 643.208,108.926L713.676,108.926C715.691,108.926 717.327,107.27 717.327,105.23L717.327,61.245ZM714.08,61.245L714.08,105.23C714.08,105.455 713.899,105.639 713.676,105.639C713.676,105.639 643.208,105.639 643.208,105.639C642.984,105.639 642.803,105.455 642.803,105.23L642.803,61.245C642.803,61.019 642.984,60.836 643.208,60.836C643.208,60.836 713.676,60.836 713.676,60.836C713.899,60.836 714.08,61.019 714.08,61.245Z" style="fill:white;stroke:black;stroke-width:1.49px;stroke-linecap:butt;stroke-miterlimit:2;"/>
            </g>
            <g transform="matrix(0.380285,0.0184638,-0.011053,0.380645,21.6303,225.285)">
                <text x="261.928px" y="45.73px" style="font-family:'Calibri', sans-serif;font-size:12.531px;fill:white;">Wha<tspan x="285.545px 289.743px " y="45.73px 45.73px ">t </tspan>prime</text>
                <text x="261.928px" y="58.26px" style="font-family:'Calibri', sans-serif;font-size:12.531px;fill:white;">number is a</text>
                <text x="261.928px" y="70.791px" style="font-family:'Calibri', sans-serif;font-size:12.531px;fill:white;">f<tspan x="265.507px 271.509px 276.808px 280.883px 287.491px " y="70.791px 70.791px 70.791px 70.791px 70.791px ">actor</tspan>  of ev<tspan x="322.502px 328.736px " y="70.791px 70.791px ">er</tspan>y</text>
                <text x="261.928px" y="83.322px" style="font-family:'Calibri', sans-serif;font-size:12.531px;fill:white;">f<tspan x="265.489px 272.097px 278.68px 282.682px 286.518px " y="83.322px 83.322px 83.322px 83.322px 83.322px ">our-d</tspan>igit</text>
                <text x="261.928px" y="95.853px" style="font-family:'Calibri', sans-serif;font-size:12.531px;fill:white;">palindr<tspan x="297.599px 304.207px " y="95.853px 95.853px ">om</tspan>e?</text>
            </g>
            <g transform="matrix(0.689952,0.0339031,0,0.674432,112.453,116.007)">
                <path d="M53.997,257.349C53.997,250.963 48.941,245.778 42.714,245.778L21.794,245.778C15.566,245.778 10.51,250.963 10.51,257.349C10.51,263.735 15.566,268.92 21.794,268.92L42.714,268.92C48.941,268.92 53.997,263.735 53.997,257.349Z" style="fill:white;stroke:black;stroke-width:1.56px;"/>
            </g>
            <g transform="matrix(0.364186,0.0212464,-0.016248,0.364478,87.0235,194.073)">
                <text x="128.1px" y="260.043px" style="font-family:'Calibri-Bold', 'Calibri', sans-serif;font-weight:700;font-size:12.531px;">BUZZ</text>
            </g>
        </g>
        <g transform="matrix(0.897563,-0.440886,0.440886,0.897563,-196.303,68.1024)">
            <ellipse cx="105.642" cy="459.276" rx="15.292" ry="7.5" style="fill:white;stroke:rgb(1,0,0);stroke-width:1.56px;"/>
        </g>
        <g transform="matrix(0.779366,-0.0182813,0.0855746,1.07048,78.3916,137.546)">
            <path d="M-42.879,239.549C-42.879,236.225 -46.591,233.526 -51.164,233.526L-52.366,233.526C-56.939,233.526 -60.651,236.225 -60.651,239.549L-60.651,276.036C-60.651,279.361 -56.939,282.06 -52.366,282.06L-51.164,282.06C-46.591,282.06 -42.879,279.361 -42.879,276.036L-42.879,239.549Z" style="fill:white;stroke:rgb(1,0,0);stroke-width:1.62px;"/>
        </g>
        <g transform="matrix(0.855115,0,0,0.855115,13.3164,37.9363)">
            <path d="M81.419,311.864C81.419,311.864 87.832,311.036 82.685,317.283C79.217,321.493 77.705,319.834 77.705,319.834C80.246,324.27 78.741,328.28 72.35,331.776C72.35,331.776 65.295,332.238 66.098,326.025C66.901,319.811 81.419,311.864 81.419,311.864Z" style="fill:white;stroke:rgb(1,0,0);stroke-width:1.82px;"/>
        </g>
        <g transform="matrix(0.762836,0,0,1.10088,47.6617,-67.4608)">
            <path d="M44.832,431.298C44.832,430.32 43.685,429.526 42.273,429.526L37.157,429.526C35.745,429.526 34.599,430.32 34.599,431.298L34.599,468.777C34.599,469.756 35.745,470.55 37.157,470.55L42.273,470.55C43.685,470.55 44.832,469.756 44.832,468.777L44.832,431.298Z" style="fill:white;stroke:rgb(1,0,0);stroke-width:1.64px;"/>
        </g>
        <g transform="matrix(0.798625,0.335048,-0.335048,0.798625,104.973,43.7477)">
            <ellipse cx="56.268" cy="293.087" rx="28.168" ry="33.812" style="fill:white;stroke:rgb(1,0,0);stroke-width:1.8px;"/>
        </g>
        <g transform="matrix(0.898967,0,-0.954548,0.473375,202.546,233.849)">
            <path d="M256.095,364.478C256.095,359.537 253.983,355.526 251.381,355.526L193.814,355.526C191.212,355.526 189.1,359.537 189.1,364.478L189.1,395.062C189.1,400.002 191.212,404.014 193.814,404.014L251.381,404.014C253.983,404.014 256.095,400.002 256.095,395.062L256.095,364.478Z" style="fill:white;stroke:rgb(1,0,0);stroke-width:4.62px;"/>
        </g>
        <path d="M53.21,393.69L87.579,384.378C91.999,383.18 96.355,385.84 97.3,390.313L97.549,391.49C97.622,391.835 97.673,392.182 97.702,392.527C97.773,392.836 97.822,393.152 97.847,393.474L101.069,431.778C101.354,435.337 93.387,436.723 93.387,436.723C89.824,436.807 87.404,436.417 87.119,432.858L84.774,403.521C84.774,403.521 56.036,415.511 38.144,415.7C26.254,415.826 16.599,409.948 16.599,402.863C16.599,395.778 26.253,390.026 38.144,390.026C44.006,390.026 49.324,391.424 53.21,393.69Z" style="fill:white;stroke:rgb(1,0,0);stroke-width:1.56px;"/>
        <g transform="matrix(1,0,0,1,-6.1123,1.31543)">
            <path d="M75.432,361.593C76.275,389.101 74.653,388.101 66.148,394.271C59.667,398.972 50.152,401.578 41.402,401.577C22.354,401.576 10.692,405.478 11.42,358.784C11.992,322.181 24.882,318.843 42.521,318.843C53.346,318.843 62.783,320.658 68.741,330.177L96.499,357.403L97.477,351.681C97.794,349.825 99.098,348.382 100.759,347.798C99.931,346.571 99.355,344.972 99.089,343.157C98.591,343.058 98.114,342.823 97.716,342.45L94.204,339.161C93.07,338.098 93.011,336.313 94.075,335.178L94.354,334.88C95.417,333.745 97.202,333.687 98.337,334.75L99.58,335.914C100.468,327.683 97.765,320.924 102.938,321.875C104.708,322.2 103.6,333.797 105.765,333.411C108.531,332.917 108.531,334.081 110.553,334.305C113.072,334.583 114.75,336.066 113.769,340.041C112.605,344.756 110.111,348.522 107.277,349.844C107.974,350.876 108.29,352.167 108.064,353.49L105.56,368.146C106.098,370.739 105.28,373.525 103.125,375.488L102.236,376.298C98.856,379.377 93.457,379.273 90.188,376.066L75.432,361.593Z" style="fill:white;stroke:rgb(1,0,0);stroke-width:1.56px;"/>
        </g>
        <g transform="matrix(1,0,0,1,-205.453,-0.714844)">
            <path d="M256.095,362.518C256.095,358.659 252.962,355.526 249.103,355.526L196.092,355.526C192.233,355.526 189.1,358.659 189.1,362.518L189.1,397.022C189.1,400.881 192.233,404.014 196.092,404.014L249.103,404.014C252.962,404.014 256.095,400.881 256.095,397.022L256.095,362.518Z" style="fill:white;stroke:rgb(1,0,0);stroke-width:1.56px;"/>
        </g>
        <g transform="matrix(0.762836,0,0,1.14225,6.48007,-116.144)">
            <path d="M44.832,431.234C44.832,430.291 43.685,429.526 42.273,429.526L37.157,429.526C35.745,429.526 34.599,430.291 34.599,431.234L34.599,468.842C34.599,469.784 35.745,470.55 37.157,470.55L42.273,470.55C43.685,470.55 44.832,469.784 44.832,468.842L44.832,431.234Z" style="fill:white;stroke:rgb(1,0,0);stroke-width:1.6px;"/>
        </g>
        <g transform="matrix(0.762836,0,0,1.14225,-31.0981,-114.766)">
            <path d="M44.832,431.234C44.832,430.291 43.685,429.526 42.273,429.526L37.157,429.526C35.745,429.526 34.599,430.291 34.599,431.234L34.599,468.842C34.599,469.784 35.745,470.55 37.157,470.55L42.273,470.55C43.685,470.55 44.832,469.784 44.832,468.842L44.832,431.234Z" style="fill:white;stroke:rgb(1,0,0);stroke-width:1.6px;"/>
        </g>
    </g>
    <g transform="matrix(0.855977,0,0,0.855977,152.451,-8.77155)">
        <g transform="matrix(0.762836,0,0,1.10088,2.17734,-65.9149)">
            <path d="M44.832,431.298C44.832,430.32 43.685,429.526 42.273,429.526L37.157,429.526C35.745,429.526 34.599,430.32 34.599,431.298L34.599,468.777C34.599,469.756 35.745,470.55 37.157,470.55L42.273,470.55C43.685,470.55 44.832,469.756 44.832,468.777L44.832,431.298Z" style="fill:white;stroke:rgb(1,0,0);stroke-width:1.64px;"/>
        </g>
        <g transform="matrix(0.762836,0,0,1.10088,7.11484,-50.8319)">
            <path d="M44.832,431.298C44.832,430.32 43.685,429.526 42.273,429.526L37.157,429.526C35.745,429.526 34.599,430.32 34.599,431.298L34.599,468.777C34.599,469.756 35.745,470.55 37.157,470.55L42.273,470.55C43.685,470.55 44.832,469.756 44.832,468.777L44.832,431.298Z" style="fill:white;stroke:rgb(1,0,0);stroke-width:1.64px;"/>
        </g>
        <g transform="matrix(0.762836,0,0,1.10088,-30.4633,-49.5038)">
            <path d="M44.832,431.298C44.832,430.32 43.685,429.526 42.273,429.526L37.157,429.526C35.745,429.526 34.599,430.32 34.599,431.298L34.599,468.777C34.599,469.756 35.745,470.55 37.157,470.55L42.273,470.55C43.685,470.55 44.832,469.756 44.832,468.777L44.832,431.298Z" style="fill:white;stroke:rgb(1,0,0);stroke-width:1.64px;"/>
        </g>
        <g transform="matrix(0.412738,0.397454,-0.415366,0.431339,195.466,237.844)">
            <path d="M-42.879,241.453C-42.879,237.078 -46.591,233.526 -51.164,233.526L-52.366,233.526C-56.939,233.526 -60.651,237.078 -60.651,241.453L-60.651,274.133C-60.651,278.508 -56.939,282.06 -52.366,282.06L-51.164,282.06C-46.591,282.06 -42.879,278.508 -42.879,274.133L-42.879,241.453Z" style="fill:white;stroke:rgb(1,0,0);stroke-width:2.66px;"/>
        </g>
        <g transform="matrix(0.897563,-0.440886,0.440886,0.897563,-228.678,69.3915)">
            <ellipse cx="105.642" cy="459.276" rx="15.292" ry="7.5" style="fill:white;stroke:rgb(1,0,0);stroke-width:1.56px;"/>
        </g>
        <g transform="matrix(1,0,0,1,-35.6523,29.397)">
            <g transform="matrix(5.02962e-17,-0.821399,0.785374,0.043615,69.1722,825.11)">
                <path d="M715.704,61.245C715.704,60.112 714.824,59.192 713.741,59.192L643.143,59.192C642.059,59.192 641.18,60.112 641.18,61.245L641.18,105.23C641.18,106.363 642.059,107.282 643.143,107.282L713.741,107.282C714.824,107.282 715.704,106.363 715.704,105.23L715.704,61.245Z" style="fill:rgb(68,127,244);"/>
            </g>
            <g transform="matrix(5.02962e-17,-0.821399,0.785374,0.043615,69.8947,824.854)">
                <path d="M717.327,61.245C717.327,59.205 715.691,57.549 713.676,57.549L643.208,57.549C641.193,57.549 639.557,59.205 639.557,61.245C639.557,61.245 639.557,105.23 639.557,105.23C639.557,107.27 641.193,108.926 643.208,108.926L713.676,108.926C715.691,108.926 717.327,107.27 717.327,105.23L717.327,61.245ZM714.08,61.245L714.08,105.23C714.08,105.455 713.899,105.639 713.676,105.639C713.676,105.639 643.208,105.639 643.208,105.639C642.984,105.639 642.803,105.455 642.803,105.23L642.803,61.245C642.803,61.019 642.984,60.836 643.208,60.836C643.208,60.836 713.676,60.836 713.676,60.836C713.899,60.836 714.08,61.019 714.08,61.245Z" style="fill:white;stroke:black;stroke-width:1.49px;stroke-linecap:butt;stroke-miterlimit:2;"/>
            </g>
            <g transform="matrix(0.380285,0.0184638,-0.011053,0.380645,21.6303,225.285)">
                <text x="261.928px" y="45.73px" style="font-family:'Calibri', sans-serif;font-size:12.531px;fill:white;">Wha<tspan x="285.545px 289.743px " y="45.73px 45.73px ">t </tspan>prime</text>
                <text x="261.928px" y="58.26px" style="font-family:'Calibri', sans-serif;font-size:12.531px;fill:white;">number is a</text>
                <text x="261.928px" y="70.791px" style="font-family:'Calibri', sans-serif;font-size:12.531px;fill:white;">f<tspan x="265.507px 271.509px 276.808px 280.883px 287.491px " y="70.791px 70.791px 70.791px 70.791px 70.791px ">actor</tspan>  of ev<tspan x="322.502px 328.736px " y="70.791px 70.791px ">er</tspan>y</text>
                <text x="261.928px" y="83.322px" style="font-family:'Calibri', sans-serif;font-size:12.531px;fill:white;">f<tspan x="265.489px 272.097px 278.68px 282.682px 286.518px " y="83.322px 83.322px 83.322px 83.322px 83.322px ">our-d</tspan>igit</text>
                <text x="261.928px" y="95.853px" style="font-family:'Calibri', sans-serif;font-size:12.531px;fill:white;">palindr<tspan x="297.599px 304.207px " y="95.853px 95.853px ">om</tspan>e?</text>
            </g>
            <g transform="matrix(0.689952,0.0339031,0,0.674432,112.453,116.007)">
                <path d="M53.997,257.349C53.997,250.963 48.941,245.778 42.714,245.778L21.794,245.778C15.566,245.778 10.51,250.963 10.51,257.349C10.51,263.735 15.566,268.92 21.794,268.92L42.714,268.92C48.941,268.92 53.997,263.735 53.997,257.349Z" style="fill:white;stroke:black;stroke-width:1.56px;"/>
            </g>
            <g transform="matrix(0.364186,0.0212464,-0.016248,0.364478,87.0235,194.073)">
                <text x="128.1px" y="260.043px" style="font-family:'Calibri-Bold', 'Calibri', sans-serif;font-weight:700;font-size:12.531px;">BUZZ</text>
            </g>
        </g>
        <g transform="matrix(0.897563,-0.440886,0.440886,0.897563,-196.303,68.1024)">
            <ellipse cx="105.642" cy="459.276" rx="15.292" ry="7.5" style="fill:white;stroke:rgb(1,0,0);stroke-width:1.56px;"/>
        </g>
        <g transform="matrix(0.779366,-0.0182813,0.0855746,1.07048,78.3916,137.546)">
            <path d="M-42.879,239.549C-42.879,236.225 -46.591,233.526 -51.164,233.526L-52.366,233.526C-56.939,233.526 -60.651,236.225 -60.651,239.549L-60.651,276.036C-60.651,279.361 -56.939,282.06 -52.366,282.06L-51.164,282.06C-46.591,282.06 -42.879,279.361 -42.879,276.036L-42.879,239.549Z" style="fill:white;stroke:rgb(1,0,0);stroke-width:1.62px;"/>
        </g>
        <g transform="matrix(0.855115,0,0,0.855115,13.3164,37.9363)">
            <path d="M81.419,311.864C81.419,311.864 87.832,311.036 82.685,317.283C79.217,321.493 77.705,319.834 77.705,319.834C80.246,324.27 78.741,328.28 72.35,331.776C72.35,331.776 65.295,332.238 66.098,326.025C66.901,319.811 81.419,311.864 81.419,311.864Z" style="fill:white;stroke:rgb(1,0,0);stroke-width:1.82px;"/>
        </g>
        <g transform="matrix(0.762836,0,0,1.10088,47.6617,-67.4608)">
            <path d="M44.832,431.298C44.832,430.32 43.685,429.526 42.273,429.526L37.157,429.526C35.745,429.526 34.599,430.32 34.599,431.298L34.599,468.777C34.599,469.756 35.745,470.55 37.157,470.55L42.273,470.55C43.685,470.55 44.832,469.756 44.832,468.777L44.832,431.298Z" style="fill:white;stroke:rgb(1,0,0);stroke-width:1.64px;"/>
        </g>
        <g transform="matrix(0.798625,0.335048,-0.335048,0.798625,104.973,43.7477)">
            <ellipse cx="56.268" cy="293.087" rx="28.168" ry="33.812" style="fill:white;stroke:rgb(1,0,0);stroke-width:1.8px;"/>
        </g>
        <g transform="matrix(0.898967,0,-0.954548,0.473375,202.546,233.849)">
            <path d="M256.095,364.478C256.095,359.537 253.983,355.526 251.381,355.526L193.814,355.526C191.212,355.526 189.1,359.537 189.1,364.478L189.1,395.062C189.1,400.002 191.212,404.014 193.814,404.014L251.381,404.014C253.983,404.014 256.095,400.002 256.095,395.062L256.095,364.478Z" style="fill:white;stroke:rgb(1,0,0);stroke-width:4.62px;"/>
        </g>
        <path d="M53.21,393.69L87.579,384.378C91.999,383.18 96.355,385.84 97.3,390.313L97.549,391.49C97.622,391.835 97.673,392.182 97.702,392.527C97.773,392.836 97.822,393.152 97.847,393.474L101.069,431.778C101.354,435.337 93.387,436.723 93.387,436.723C89.824,436.807 87.404,436.417 87.119,432.858L84.774,403.521C84.774,403.521 56.036,415.511 38.144,415.7C26.254,415.826 16.599,409.948 16.599,402.863C16.599,395.778 26.253,390.026 38.144,390.026C44.006,390.026 49.324,391.424 53.21,393.69Z" style="fill:white;stroke:rgb(1,0,0);stroke-width:1.56px;"/>
        <g transform="matrix(1,0,0,1,-6.1123,1.31543)">
            <path d="M75.432,361.593C76.275,389.101 74.653,388.101 66.148,394.271C59.667,398.972 50.152,401.578 41.402,401.577C22.354,401.576 10.692,405.478 11.42,358.784C11.992,322.181 24.882,318.843 42.521,318.843C53.346,318.843 62.783,320.658 68.741,330.177L96.499,357.403L97.477,351.681C97.794,349.825 99.098,348.382 100.759,347.798C99.931,346.571 99.355,344.972 99.089,343.157C98.591,343.058 98.114,342.823 97.716,342.45L94.204,339.161C93.07,338.098 93.011,336.313 94.075,335.178L94.354,334.88C95.417,333.745 97.202,333.687 98.337,334.75L99.58,335.914C100.468,327.683 97.765,320.924 102.938,321.875C104.708,322.2 103.6,333.797 105.765,333.411C108.531,332.917 108.531,334.081 110.553,334.305C113.072,334.583 114.75,336.066 113.769,340.041C112.605,344.756 110.111,348.522 107.277,349.844C107.974,350.876 108.29,352.167 108.064,353.49L105.56,368.146C106.098,370.739 105.28,373.525 103.125,375.488L102.236,376.298C98.856,379.377 93.457,379.273 90.188,376.066L75.432,361.593Z" style="fill:white;stroke:rgb(1,0,0);stroke-width:1.56px;"/>
        </g>
        <g transform="matrix(1,0,0,1,-205.453,-0.714844)">
            <path d="M256.095,362.518C256.095,358.659 252.962,355.526 249.103,355.526L196.092,355.526C192.233,355.526 189.1,358.659 189.1,362.518L189.1,397.022C189.1,400.881 192.233,404.014 196.092,404.014L249.103,404.014C252.962,404.014 256.095,400.881 256.095,397.022L256.095,362.518Z" style="fill:white;stroke:rgb(1,0,0);stroke-width:1.56px;"/>
        </g>
        <g transform="matrix(0.762836,0,0,1.14225,6.48007,-116.144)">
            <path d="M44.832,431.234C44.832,430.291 43.685,429.526 42.273,429.526L37.157,429.526C35.745,429.526 34.599,430.291 34.599,431.234L34.599,468.842C34.599,469.784 35.745,470.55 37.157,470.55L42.273,470.55C43.685,470.55 44.832,469.784 44.832,468.842L44.832,431.234Z" style="fill:white;stroke:rgb(1,0,0);stroke-width:1.6px;"/>
        </g>
        <g transform="matrix(0.762836,0,0,1.14225,-31.0981,-114.766)">
            <path d="M44.832,431.234C44.832,430.291 43.685,429.526 42.273,429.526L37.157,429.526C35.745,429.526 34.599,430.291 34.599,431.234L34.599,468.842C34.599,469.784 35.745,470.55 37.157,470.55L42.273,470.55C43.685,470.55 44.832,469.784 44.832,468.842L44.832,431.234Z" style="fill:white;stroke:rgb(1,0,0);stroke-width:1.6px;"/>
        </g>
    </g>
    <g transform="matrix(0.855977,0,0,0.855977,265.557,-8.77155)">
        <g transform="matrix(0.762836,0,0,1.10088,2.17734,-65.9149)">
            <path d="M44.832,431.298C44.832,430.32 43.685,429.526 42.273,429.526L37.157,429.526C35.745,429.526 34.599,430.32 34.599,431.298L34.599,468.777C34.599,469.756 35.745,470.55 37.157,470.55L42.273,470.55C43.685,470.55 44.832,469.756 44.832,468.777L44.832,431.298Z" style="fill:white;stroke:rgb(1,0,0);stroke-width:1.64px;"/>
        </g>
        <g transform="matrix(0.762836,0,0,1.10088,7.11484,-50.8319)">
            <path d="M44.832,431.298C44.832,430.32 43.685,429.526 42.273,429.526L37.157,429.526C35.745,429.526 34.599,430.32 34.599,431.298L34.599,468.777C34.599,469.756 35.745,470.55 37.157,470.55L42.273,470.55C43.685,470.55 44.832,469.756 44.832,468.777L44.832,431.298Z" style="fill:white;stroke:rgb(1,0,0);stroke-width:1.64px;"/>
        </g>
        <g transform="matrix(0.762836,0,0,1.10088,-30.4633,-49.5038)">
            <path d="M44.832,431.298C44.832,430.32 43.685,429.526 42.273,429.526L37.157,429.526C35.745,429.526 34.599,430.32 34.599,431.298L34.599,468.777C34.599,469.756 35.745,470.55 37.157,470.55L42.273,470.55C43.685,470.55 44.832,469.756 44.832,468.777L44.832,431.298Z" style="fill:white;stroke:rgb(1,0,0);stroke-width:1.64px;"/>
        </g>
        <g transform="matrix(0.412738,0.397454,-0.415366,0.431339,195.466,237.844)">
            <path d="M-42.879,241.453C-42.879,237.078 -46.591,233.526 -51.164,233.526L-52.366,233.526C-56.939,233.526 -60.651,237.078 -60.651,241.453L-60.651,274.133C-60.651,278.508 -56.939,282.06 -52.366,282.06L-51.164,282.06C-46.591,282.06 -42.879,278.508 -42.879,274.133L-42.879,241.453Z" style="fill:white;stroke:rgb(1,0,0);stroke-width:2.66px;"/>
        </g>
        <g transform="matrix(0.897563,-0.440886,0.440886,0.897563,-228.678,69.3915)">
            <ellipse cx="105.642" cy="459.276" rx="15.292" ry="7.5" style="fill:white;stroke:rgb(1,0,0);stroke-width:1.56px;"/>
        </g>
        <g transform="matrix(1,0,0,1,-35.6523,29.397)">
            <g transform="matrix(5.02962e-17,-0.821399,0.785374,0.043615,69.1722,825.11)">
                <path d="M715.704,61.245C715.704,60.112 714.824,59.192 713.741,59.192L643.143,59.192C642.059,59.192 641.18,60.112 641.18,61.245L641.18,105.23C641.18,106.363 642.059,107.282 643.143,107.282L713.741,107.282C714.824,107.282 715.704,106.363 715.704,105.23L715.704,61.245Z" style="fill:rgb(68,127,244);"/>
            </g>
            <g transform="matrix(5.02962e-17,-0.821399,0.785374,0.043615,69.8947,824.854)">
                <path d="M717.327,61.245C717.327,59.205 715.691,57.549 713.676,57.549L643.208,57.549C641.193,57.549 639.557,59.205 639.557,61.245C639.557,61.245 639.557,105.23 639.557,105.23C639.557,107.27 641.193,108.926 643.208,108.926L713.676,108.926C715.691,108.926 717.327,107.27 717.327,105.23L717.327,61.245ZM714.08,61.245L714.08,105.23C714.08,105.455 713.899,105.639 713.676,105.639C713.676,105.639 643.208,105.639 643.208,105.639C642.984,105.639 642.803,105.455 642.803,105.23L642.803,61.245C642.803,61.019 642.984,60.836 643.208,60.836C643.208,60.836 713.676,60.836 713.676,60.836C713.899,60.836 714.08,61.019 714.08,61.245Z" style="fill:white;stroke:black;stroke-width:1.49px;stroke-linecap:butt;stroke-miterlimit:2;"/>
            </g>
            <g transform="matrix(0.380285,0.0184638,-0.011053,0.380645,21.6303,225.285)">
                <text x="261.928px" y="45.73px" style="font-family:'Calibri', sans-serif;font-size:12.531px;fill:white;">Wha<tspan x="285.545px 289.743px " y="45.73px 45.73px ">t </tspan>prime</text>
                <text x="261.928px" y="58.26px" style="font-family:'Calibri', sans-serif;font-size:12.531px;fill:white;">number is a</text>
                <text x="261.928px" y="70.791px" style="font-family:'Calibri', sans-serif;font-size:12.531px;fill:white;">f<tspan x="265.507px 271.509px 276.808px 280.883px 287.491px " y="70.791px 70.791px 70.791px 70.791px 70.791px ">actor</tspan>  of ev<tspan x="322.502px 328.736px " y="70.791px 70.791px ">er</tspan>y</text>
                <text x="261.928px" y="83.322px" style="font-family:'Calibri', sans-serif;font-size:12.531px;fill:white;">f<tspan x="265.489px 272.097px 278.68px 282.682px 286.518px " y="83.322px 83.322px 83.322px 83.322px 83.322px ">our-d</tspan>igit</text>
                <text x="261.928px" y="95.853px" style="font-family:'Calibri', sans-serif;font-size:12.531px;fill:white;">palindr<tspan x="297.599px 304.207px " y="95.853px 95.853px ">om</tspan>e?</text>
            </g>
            <g transform="matrix(0.689952,0.0339031,0,0.674432,112.453,116.007)">
                <path d="M53.997,257.349C53.997,250.963 48.941,245.778 42.714,245.778L21.794,245.778C15.566,245.778 10.51,250.963 10.51,257.349C10.51,263.735 15.566,268.92 21.794,268.92L42.714,268.92C48.941,268.92 53.997,263.735 53.997,257.349Z" style="fill:white;stroke:black;stroke-width:1.56px;"/>
            </g>
            <g transform="matrix(0.364186,0.0212464,-0.016248,0.364478,87.0235,194.073)">
                <text x="128.1px" y="260.043px" style="font-family:'Calibri-Bold', 'Calibri', sans-serif;font-weight:700;font-size:12.531px;">BUZZ</text>
            </g>
        </g>
        <g transform="matrix(0.897563,-0.440886,0.440886,0.897563,-196.303,68.1024)">
            <ellipse cx="105.642" cy="459.276" rx="15.292" ry="7.5" style="fill:white;stroke:rgb(1,0,0);stroke-width:1.56px;"/>
        </g>
        <g transform="matrix(0.779366,-0.0182813,0.0855746,1.07048,78.3916,137.546)">
            <path d="M-42.879,239.549C-42.879,236.225 -46.591,233.526 -51.164,233.526L-52.366,233.526C-56.939,233.526 -60.651,236.225 -60.651,239.549L-60.651,276.036C-60.651,279.361 -56.939,282.06 -52.366,282.06L-51.164,282.06C-46.591,282.06 -42.879,279.361 -42.879,276.036L-42.879,239.549Z" style="fill:white;stroke:rgb(1,0,0);stroke-width:1.62px;"/>
        </g>
        <g transform="matrix(0.855115,0,0,0.855115,13.3164,37.9363)">
            <path d="M81.419,311.864C81.419,311.864 87.832,311.036 82.685,317.283C79.217,321.493 77.705,319.834 77.705,319.834C80.246,324.27 78.741,328.28 72.35,331.776C72.35,331.776 65.295,332.238 66.098,326.025C66.901,319.811 81.419,311.864 81.419,311.864Z" style="fill:white;stroke:rgb(1,0,0);stroke-width:1.82px;"/>
        </g>
        <g transform="matrix(0.762836,0,0,1.10088,47.6617,-67.4608)">
            <path d="M44.832,431.298C44.832,430.32 43.685,429.526 42.273,429.526L37.157,429.526C35.745,429.526 34.599,430.32 34.599,431.298L34.599,468.777C34.599,469.756 35.745,470.55 37.157,470.55L42.273,470.55C43.685,470.55 44.832,469.756 44.832,468.777L44.832,431.298Z" style="fill:white;stroke:rgb(1,0,0);stroke-width:1.64px;"/>
        </g>
        <g transform="matrix(0.798625,0.335048,-0.335048,0.798625,104.973,43.7477)">
            <ellipse cx="56.268" cy="293.087" rx="28.168" ry="33.812" style="fill:white;stroke:rgb(1,0,0);stroke-width:1.8px;"/>
        </g>
        <g transform="matrix(0.898967,0,-0.954548,0.473375,202.546,233.849)">
            <path d="M256.095,364.478C256.095,359.537 253.983,355.526 251.381,355.526L193.814,355.526C191.212,355.526 189.1,359.537 189.1,364.478L189.1,395.062C189.1,400.002 191.212,404.014 193.814,404.014L251.381,404.014C253.983,404.014 256.095,400.002 256.095,395.062L256.095,364.478Z" style="fill:white;stroke:rgb(1,0,0);stroke-width:4.62px;"/>
        </g>
        <path d="M53.21,393.69L87.579,384.378C91.999,383.18 96.355,385.84 97.3,390.313L97.549,391.49C97.622,391.835 97.673,392.182 97.702,392.527C97.773,392.836 97.822,393.152 97.847,393.474L101.069,431.778C101.354,435.337 93.387,436.723 93.387,436.723C89.824,436.807 87.404,436.417 87.119,432.858L84.774,403.521C84.774,403.521 56.036,415.511 38.144,415.7C26.254,415.826 16.599,409.948 16.599,402.863C16.599,395.778 26.253,390.026 38.144,390.026C44.006,390.026 49.324,391.424 53.21,393.69Z" style="fill:white;stroke:rgb(1,0,0);stroke-width:1.56px;"/>
        <g transform="matrix(1,0,0,1,-6.1123,1.31543)">
            <path d="M75.432,361.593C76.275,389.101 74.653,388.101 66.148,394.271C59.667,398.972 50.152,401.578 41.402,401.577C22.354,401.576 10.692,405.478 11.42,358.784C11.992,322.181 24.882,318.843 42.521,318.843C53.346,318.843 62.783,320.658 68.741,330.177L96.499,357.403L97.477,351.681C97.794,349.825 99.098,348.382 100.759,347.798C99.931,346.571 99.355,344.972 99.089,343.157C98.591,343.058 98.114,342.823 97.716,342.45L94.204,339.161C93.07,338.098 93.011,336.313 94.075,335.178L94.354,334.88C95.417,333.745 97.202,333.687 98.337,334.75L99.58,335.914C100.468,327.683 97.765,320.924 102.938,321.875C104.708,322.2 103.6,333.797 105.765,333.411C108.531,332.917 108.531,334.081 110.553,334.305C113.072,334.583 114.75,336.066 113.769,340.041C112.605,344.756 110.111,348.522 107.277,349.844C107.974,350.876 108.29,352.167 108.064,353.49L105.56,368.146C106.098,370.739 105.28,373.525 103.125,375.488L102.236,376.298C98.856,379.377 93.457,379.273 90.188,376.066L75.432,361.593Z" style="fill:white;stroke:rgb(1,0,0);stroke-width:1.56px;"/>
        </g>
        <g transform="matrix(1,0,0,1,-205.453,-0.714844)">
            <path d="M256.095,362.518C256.095,358.659 252.962,355.526 249.103,355.526L196.092,355.526C192.233,355.526 189.1,358.659 189.1,362.518L189.1,397.022C189.1,400.881 192.233,404.014 196.092,404.014L249.103,404.014C252.962,404.014 256.095,400.881 256.095,397.022L256.095,362.518Z" style="fill:white;stroke:rgb(1,0,0);stroke-width:1.56px;"/>
        </g>
        <g transform="matrix(0.762836,0,0,1.14225,6.48007,-116.144)">
            <path d="M44.832,431.234C44.832,430.291 43.685,429.526 42.273,429.526L37.157,429.526C35.745,429.526 34.599,430.291 34.599,431.234L34.599,468.842C34.599,469.784 35.745,470.55 37.157,470.55L42.273,470.55C43.685,470.55 44.832,469.784 44.832,468.842L44.832,431.234Z" style="fill:white;stroke:rgb(1,0,0);stroke-width:1.6px;"/>
        </g>
        <g transform="matrix(0.762836,0,0,1.14225,-31.0981,-114.766)">
            <path d="M44.832,431.234C44.832,430.291 43.685,429.526 42.273,429.526L37.157,429.526C35.745,429.526 34.599,430.291 34.599,431.234L34.599,468.842C34.599,469.784 35.745,470.55 37.157,470.55L42.273,470.55C43.685,470.55 44.832,469.784 44.832,468.842L44.832,431.234Z" style="fill:white;stroke:rgb(1,0,0);stroke-width:1.6px;"/>
        </g>
    </g>
</svg>
